# xmcd
#
# Track frame offsets:
#	150
#	9658
#	19421
#	29905
#	50019
#	62347
#	74541
#	85474
#	99569
#	115974
#	131700
#	147860
#	156814
#	170452
#
# Disc length: 2376 seconds
#
# Revision: 1
# Processed by: cddbd v1.5.2PL0 Copyright (c) Steve Scherf et al.
# Submitted via: audiograbber 1.83.01
#
DISCID=cb09460e
DTITLE=Truckstop honeymoon - Homemade haircut
DYEAR=2010
DGENRE=Country
TTITLE0=Homemade haircut
TTITLE1=Accidentally
TTITLE2=Cape Carnaveral
TTITLE3=Latch key kid recipe book
TTITLE4=Childhood memories
TTITLE5=Burlington Northern Sante Fe
TTITLE6=Widow
TTITLE7=Seahorses
TTITLE8=Bargain hunting
TTITLE9=When you look at me now
TTITLE10=Romantic conversations
TTITLE11=Kansas in the spring
TTITLE12=Inconsolable child
TTITLE13=Daddy don't play
EXTD=
EXTT0=
EXTT1=
EXTT2=
EXTT3=
EXTT4=
EXTT5=
EXTT6=
EXTT7=
EXTT8=
EXTT9=
EXTT10=
EXTT11=
EXTT12=
EXTT13=
PLAYORDER=
